<svg xmlns="http://www.w3.org/2000/svg" viewBox="0 0 760 520"><defs><linearGradient id="bg" x1="0" x2="1"><stop stop-color="#fbf8f5"/><stop offset="1" stop-color="#e9e1dc"/></linearGradient><linearGradient id="book" x1="0" y1="0" x2="0" y2="1"><stop stop-color="#f5f0f8"/><stop offset="1" stop-color="#dfd4e7"/></linearGradient><filter id="shadow"><feDropShadow dx="0" dy="7" stdDeviation="8" flood-color="#756b70" flood-opacity=".22"/></filter></defs><rect width="760" height="520" fill="url(#bg)"/><rect y="456" width="760" height="64" fill="#d7c5b4"/><rect x="366" y="44" width="188" height="327" rx="3" fill="#cdb6a2" filter="url(#shadow)"/><rect x="382" y="60" width="156" height="295" fill="#fbf9f5"/><text x="408" y="111" fill="#6f5c85" font-family="Georgia,serif" font-style="italic" font-size="31"><tspan x="408">Data</tspan><tspan x="408" dy="43">for people.</tspan><tspan x="408" dy="43">A healthier,</tspan><tspan x="408" dy="43">more inclusive</tspan><tspan x="408" dy="43">tomorrow.</tspan></text><line x1="447" y1="319" x2="478" y2="319" stroke="#7a5a8d" stroke-width="2"/><ellipse cx="210" cy="446" rx="88" ry="14" fill="#b6a79b" opacity=".26"/><path d="M177 304C183 257 183 213 173 161M197 304C203 243 206 186 211 135M220 304C228 238 236 183 247 128M239 305C253 258 268 213 282 172M159 306C157 264 151 228 141 192" stroke="#6f8068" stroke-width="5" fill="none"/><g fill="#83649c"><circle cx="171" cy="168" r="8"/><circle cx="177" cy="187" r="7"/><circle cx="181" cy="207" r="8"/><circle cx="210" cy="141" r="8"/><circle cx="210" cy="163" r="8"/><circle cx="208" cy="185" r="7"/><circle cx="247" cy="135" r="8"/><circle cx="244" cy="158" r="8"/><circle cx="238" cy="181" r="8"/><circle cx="281" cy="178" r="8"/><circle cx="273" cy="197" r="7"/><circle cx="142" cy="198" r="7"/><circle cx="148" cy="219" r="7"/></g><path d="M153 298h112l-10 129q-4 25-46 25t-46-25z" fill="#f1eee8" stroke="#dfdbd3" stroke-width="2" filter="url(#shadow)"/><g transform="translate(581 92)"><path d="M78 112C71 84 71 53 76 28M76 57C51 43 33 25 20 8M75 69C104 52 121 33 132 12M75 80C45 81 25 94 8 111" stroke="#6e8665" stroke-width="6" fill="none"/><g fill="#7e9b75"><ellipse cx="20" cy="10" rx="23" ry="12" transform="rotate(28 20 10)"/><ellipse cx="45" cy="35" rx="23" ry="12" transform="rotate(25 45 35)"/><ellipse cx="131" cy="13" rx="24" ry="12" transform="rotate(-28 131 13)"/><ellipse cx="105" cy="43" rx="24" ry="12" transform="rotate(-28 105 43)"/><ellipse cx="9" cy="112" rx="24" ry="12" transform="rotate(-15 9 112)"/><ellipse cx="43" cy="90" rx="24" ry="12" transform="rotate(-14 43 90)"/></g><path d="M43 105h67l-8 74q-4 21-26 21t-26-21z" fill="#f5f1eb" stroke="#ddd6ce" stroke-width="2"/></g><g filter="url(#shadow)"><rect x="545" y="371" width="236" height="39" rx="6" fill="url(#book)" stroke="#b9acbf"/><rect x="532" y="408" width="249" height="39" rx="6" fill="url(#book)" stroke="#b9acbf"/><rect x="521" y="445" width="260" height="39" rx="6" fill="url(#book)" stroke="#b9acbf"/><rect x="537" y="482" width="244" height="38" rx="6" fill="url(#book)" stroke="#b9acbf"/></g><g fill="#655370" font-family="Arial,sans-serif" font-size="17" text-anchor="middle"><text x="663" y="396">DATA ANALYTICS</text><text x="656" y="433">PEOPLE</text><text x="651" y="470">PSYCHOLOGY</text><text x="660" y="507">HEALTHCARE</text></g></svg>